{"title":"The Tapes 2011 DVD rip AC3XViD-REBORN","uid":6762096,"size":1481716135,"categoryP":"video","categoryS":"movies","magnet":"?xt=urn:btih:9198c71c02d1253f0ff5a5ffbdb7498517e1b015&amp;dn=The+Tapes+2011+DVD+rip+AC3XViD-REBORN&amp;tr=udp%3A%2F%2Ftracker.openbittorrent.com%3A80&amp;tr=udp%3A%2F%2Fopen.demonii.com%3A1337&amp;tr=udp%3A%2F%2Ftracker.coppersurfer.tk%3A6969&amp;tr=udp%3A%2F%2Fexodus.desync.com%3A6969","seeders":1,"leechers":0,"uploader":"LegendET","files":2,"time":1319240675,"description":" &lt;a href=&quot;http://i.imgur.com/X3Ysb.jpg&quot; rel=&quot;nofollow&quot; target=&quot;_NEW&quot;&gt;http://i.imgur.com/X3Ysb.jpg&lt;/a&gt;\n\n\nThe Tapes 2011 DVDRiP AC3 XViD - REBORN\n\nSOURCES THANKED:\nNot for you to know \n &lt;a href=&quot;\nhttp://www.imdb.com/title/tt1647479/&quot; rel=&quot;nofollow&quot; target=&quot;_NEW&quot;&gt;\nhttp://www.imdb.com/title/tt1647479/&lt;/a&gt;\n\nVideo\nID                               : 0\nFormat                           : MPEG-4 Visual\nFormat profile                   : Advanced Simple@L5\nFormat settings, BVOP            : 2\nFormat settings, QPel            : No\nFormat settings, GMC             : No warppoints\nFormat settings, Matrix          : Default (MPEG)\nMuxing mode                      : Packed bitstream\nCodec ID                         : XVID\nCodec ID/Hint                    : XviD\nDuration                         : 1h 17mn\nBit rate                         : 2 311 Kbps\nWidth                            : 720 pixels\nHeight                           : 384 pixels\nDisplay aspect ratio             : 1.875\nFrame rate                       : 25.000 fps\nColor space                      : YUV\nChroma subsampling               : 4:2:0\nBit depth                        : 8 bits\nScan type                        : Progressive\nCompression mode                 : Lossy\nBits/(Pixel*Frame)               : 0.334\nStream size                      : 1.25 GiB (91%)\nWriting library                  : XviD 64\n\nAudio\nID                               : 1\nFormat                           : AC-3\nFormat/Info                      : Audio Coding 3\nMode extension                   : CM (complete main)\nCodec ID                         : 2000\nDuration                         : 1h 17mn\nBit rate mode                    : Constant\nBit rate                         : 224 Kbps\nChannel(s)                       : 2 channels\nChannel positions                : Front: L R\nSampling rate                    : 48.0 KHz\nBit depth                        : 16 bits\nCompression mode                 : Lossy\nStream size                      : 124 MiB (9%)\nAlignment                        : Aligned on interleaves\nInterleave, duration             : 40 ms (1.00 video frame)\nInterleave, preload duration     : 512 ms\n\n\n\nWORKDONE:\n\nStraight for rip really,with a slight rgb colour tweak along with the brightness and\ncontrast.\nAudio just left as it was on the dvdr\n &lt;a href=&quot;\nhttp://i.imgur.com/y61U9.png&quot; rel=&quot;nofollow&quot; target=&quot;_NEW&quot;&gt;\nhttp://i.imgur.com/y61U9.png&lt;/a&gt; &lt;a href=&quot;\nhttp://i.imgur.com/yn5Jo.png&quot; rel=&quot;nofollow&quot; target=&quot;_NEW&quot;&gt;\nhttp://i.imgur.com/yn5Jo.png&lt;/a&gt; &lt;a href=&quot;\nhttp://i.imgur.com/UX92G.png&quot; rel=&quot;nofollow&quot; target=&quot;_NEW&quot;&gt;\nhttp://i.imgur.com/UX92G.png&lt;/a&gt; &lt;a href=&quot;\nhttp://i.imgur.com/Wg2aM.png&quot; rel=&quot;nofollow&quot; target=&quot;_NEW&quot;&gt;\nhttp://i.imgur.com/Wg2aM.png&lt;/a&gt;","torrent":{"xt":"urn:btih:9198c71c02d1253f0ff5a5ffbdb7498517e1b015","amp;dn":"The+Tapes+2011+DVD+rip+AC3XViD-REBORN","amp;tr":["udp%3A%2F%2Ftracker.openbittorrent.com%3A80","udp%3A%2F%2Fopen.demonii.com%3A1337","udp%3A%2F%2Ftracker.coppersurfer.tk%3A6969","udp%3A%2F%2Fexodus.desync.com%3A6969"],"infoHash":"9198c71c02d1253f0ff5a5ffbdb7498517e1b015","infoHashBuffer":{"type":"Buffer","data":[145,152,199,28,2,209,37,63,15,245,165,255,189,183,73,133,23,225,176,21]},"announce":[],"urlList":[]}}